<?xml version="1.0" standalone="no"?>
<!DOCTYPE svg PUBLIC "-//W3C//DTD SVG 20010904//EN"
 "http://www.w3.org/TR/2001/REC-SVG-20010904/DTD/svg10.dtd">
<svg version="1.0" xmlns="http://www.w3.org/2000/svg"
 width="1280.000000pt" height="1280.000000pt" viewBox="0 0 1280.000000 1280.000000"
 preserveAspectRatio="xMidYMid meet">
<g transform="translate(0.000000,1280.000000) scale(0.100000,-0.100000)"
fill="#000000" stroke="none">
<path d="M6190 12789 c-58 -4 -177 -13 -265 -19 -1086 -75 -2161 -445 -3080
-1060 -1215 -813 -2123 -2032 -2550 -3424 -139 -453 -231 -935 -264 -1391 -37
-511 -37 -479 0 -985 41 -571 169 -1167 369 -1710 685 -1868 2217 -3323 4114
-3905 453 -139 935 -231 1391 -264 511 -37 479 -37 985 0 1196 86 2362 524
3335 1251 1083 809 1886 1947 2280 3232 139 453 231 935 264 1391 37 511 37
479 0 985 -41 571 -169 1167 -369 1710 -685 1868 -2217 3323 -4114 3905 -458
141 -943 232 -1401 264 -82 6 -213 15 -291 21 -156 11 -249 11 -404 -1z m630
-760 c1287 -91 2518 -638 3465 -1538 1182 -1124 1821 -2691 1755 -4309 -33
-801 -215 -1528 -559 -2237 -657 -1351 -1807 -2377 -3226 -2877 -512 -181
-1069 -285 -1635 -307 -1445 -56 -2819 428 -3925 1383 -129 111 -401 381 -521
518 -630 716 -1062 1551 -1274 2468 -111 477 -158 980 -139 1488 41 1099 397
2146 1037 3047 912 1284 2332 2138 3882 2334 377 48 749 58 1140 30z"/>
<path d="M5040 10722 c-76 -32 -653 -371 -688 -405 -83 -80 -101 -204 -45
-312 86 -167 1156 -2005 1185 -2035 61 -65 167 -95 253 -71 54 14 671 371 715
413 20 18 44 51 54 72 25 53 31 141 14 191 -19 53 -1151 2018 -1195 2072 -64
80 -198 114 -293 75z"/>
<path d="M3932 9852 c-205 -126 -322 -213 -443 -332 -315 -309 -404 -662 -333
-1320 93 -872 469 -1933 1059 -2991 682 -1221 1543 -2248 2350 -2800 387 -265
648 -360 955 -345 188 8 340 48 555 143 119 52 376 192 372 201 -2 4 -273 473
-601 1043 l-598 1037 -62 -28 c-318 -144 -669 -77 -1044 202 -116 86 -316 279
-425 411 -383 462 -681 1088 -772 1627 -22 127 -34 360 -24 473 24 284 137
516 317 646 59 44 60 45 47 70 -128 234 -1186 2047 -1196 2048 -8 1 -78 -37
-157 -85z"/>
<path d="M8210 5321 c-46 -10 -72 -24 -409 -218 -157 -90 -301 -179 -320 -196
-71 -68 -100 -182 -67 -273 23 -67 1166 -2037 1204 -2076 74 -78 195 -101 292
-57 93 42 643 365 677 398 51 49 75 110 74 185 0 35 -5 75 -11 90 -19 52
-1165 2028 -1197 2066 -54 63 -159 98 -243 81z"/>
</g>
</svg>
